<svg xmlns="http://www.w3.org/2000/svg" viewBox="0 0 752.99 738.34"><defs><style>.cls-1{fill:#fff;}</style></defs><g id="Capa_2" data-name="Capa 2"><g id="Capa_2-2" data-name="Capa 2"><polygon class="cls-1" points="451.29 352.14 563.18 352.14 500.81 491.62 284.36 0 74.32 476.94 179.8 476.94 282.52 244.89 499.9 738.34 712.69 251.31 500.81 251.31 451.29 352.14"/><path class="cls-1" d="M18.81,152.68H0v79.08H11.93V202h6.88A17.87,17.87,0,0,0,32,196.42,18.39,18.39,0,0,0,37.49,183V171.55q0-8.13-4.8-13.38Q27.52,152.68,18.81,152.68Zm7.13,30.61a6.67,6.67,0,0,1-2,4.86,6.49,6.49,0,0,1-4.83,2H11.93V164.86h7.19a6.62,6.62,0,0,1,5,1.9,6.79,6.79,0,0,1,1.86,5Z"/><polygon class="cls-1" points="78.74 219.77 56.72 219.77 56.72 198.19 72.81 198.19 72.81 186.2 56.72 186.2 56.72 164.61 78.74 164.61 78.74 152.62 44.79 152.62 44.79 231.76 78.74 231.76 78.74 219.77"/><path class="cls-1" d="M96.65,202h8l7.23,29.79h12.89l-8.83-34.52a18.48,18.48,0,0,0,6.37-14.2V171.55q0-8.58-4.1-13.38-4.67-5.49-14.64-5.49H84.73v79.08H96.65Zm0-37.11h7.2q6.81,0,6.81,6.88v11.55a6.7,6.7,0,0,1-2,4.86,6.53,6.53,0,0,1-4.83,2h-7.2Z"/><path class="cls-1" d="M148.64,221.72a6.07,6.07,0,0,1-4.92-2.22q-2.91-3.1-3.66-10l-11.36.82a31,31,0,0,0,2.62,11.2,19.33,19.33,0,0,0,6.09,7.73A18.71,18.71,0,0,0,149,232.71a22.28,22.28,0,0,0,6.62-.89,15.44,15.44,0,0,0,8.21-5.61,22.32,22.32,0,0,0,4.29-14.14,21.55,21.55,0,0,0-1.77-7.57,32.46,32.46,0,0,0-1.83-3.73,40.78,40.78,0,0,0-6.81-8.71q-1.33-1.38-5.49-4.85a39,39,0,0,1-5.3-5.05q-4.68-5.62-4.67-11a11.24,11.24,0,0,1,1.38-5.8,5.45,5.45,0,0,1,5-2.9,5.83,5.83,0,0,1,4.73,2,13.78,13.78,0,0,1,2.78,7.57l11.42-2.08A22.83,22.83,0,0,0,165,160.7a16.33,16.33,0,0,0-5.71-6.18,20.14,20.14,0,0,0-10.92-2.84,18,18,0,0,0-11.1,3.34Q130,160.58,130,171.38a23.78,23.78,0,0,0,2.65,11.12A45.37,45.37,0,0,0,141,192.8l10.61,10q4.47,4.86,4.48,9.79a9.56,9.56,0,0,1-1.2,5.24A7.38,7.38,0,0,1,148.64,221.72Z"/><path class="cls-1" d="M603.66,565.78H584.85v79.07h11.93V615.06h6.88a17.87,17.87,0,0,0,13.22-5.55,18.39,18.39,0,0,0,5.46-13.38V584.64q0-8.13-4.8-13.37Q612.37,565.78,603.66,565.78Zm7.13,30.6a6.67,6.67,0,0,1-2,4.86,6.49,6.49,0,0,1-4.83,2h-7.19V578H604a6.65,6.65,0,0,1,5,1.89,6.79,6.79,0,0,1,1.86,5Z"/><polygon class="cls-1" points="630.44 644.85 664.39 644.85 664.39 632.86 642.37 632.86 642.37 611.28 658.46 611.28 658.46 599.29 642.37 599.29 642.37 577.71 664.39 577.71 664.39 565.72 630.44 565.72 630.44 644.85"/><path class="cls-1" d="M690.11,564.89a18.91,18.91,0,0,0-18.93,18.94V627a18.9,18.9,0,0,0,37.8,0V616H696.61v10.91a6.53,6.53,0,0,1-2,4.83,6.67,6.67,0,0,1-4.86,2,6.79,6.79,0,0,1-6.82-6.82V583.57a6.71,6.71,0,0,1,2-4.86,6.55,6.55,0,0,1,4.83-2,6.88,6.88,0,0,1,6.88,6.87v9.28H709v-9a18.34,18.34,0,0,0-5.49-13.38A18.12,18.12,0,0,0,690.11,564.89Z"/><polygon class="cls-1" points="715.76 565.78 715.76 577.77 728.44 577.77 728.44 644.85 740.37 644.85 740.37 577.77 752.99 577.77 752.99 565.78 715.76 565.78"/></g></g></svg>